HIERARCHY
ROOT Hip
{
	OFFSET 0.000000 0.000000 0.000000 
	CHANNELS 6 Xposition Yposition Zposition Xrotation Yrotation Zrotation
	JOINT LowerSpine
	{
		OFFSET 0.000000 8.623500 -5.300200 
		CHANNELS 3 Xrotation Yrotation Zrotation
		JOINT MiddleSpine
		{
			OFFSET 11.218800 0.000000 0.000000 
			CHANNELS 3 Xrotation Yrotation Zrotation
			JOINT Chest
			{
				OFFSET 15.808300 0.000000 0.000000 
				CHANNELS 3 Xrotation Yrotation Zrotation
				JOINT Neck
				{
					OFFSET 26.517200 -0.618600 0.000000 
					CHANNELS 3 Xrotation Yrotation Zrotation
					JOINT Head
					{
						OFFSET 9.179000 0.000000 0.000000 
						CHANNELS 3 Xrotation Yrotation Zrotation
						End Site
						{
							OFFSET 20.397900 0.000000 0.000000 
						}
					}
				}
				JOINT RClavicle
				{
					OFFSET 24.477400 0.000000 3.263700 
					CHANNELS 3 Xrotation Yrotation Zrotation
					JOINT RShoulder
					{
						OFFSET -16.114300 -4.079600 1.019900 
						CHANNELS 3 Xrotation Yrotation Zrotation
						JOINT RForearm
						{
							OFFSET -32.381599 0.000000 0.204000 
							CHANNELS 3 Xrotation Yrotation Zrotation
							JOINT RHand
							{
								OFFSET -27.282101 0.000000 0.000000 
								CHANNELS 3 Xrotation Yrotation Zrotation
								End Site
								{
									OFFSET -16.318300 -1.019900 0.000000 
								}
							}
						}
					}
				}
				JOINT LClavicle
				{
					OFFSET 24.477400 0.000000 -3.263700 
					CHANNELS 3 Xrotation Yrotation Zrotation
					JOINT LShoulder
					{
						OFFSET -16.114300 -4.079600 -1.019900 
						CHANNELS 3 Xrotation Yrotation Zrotation
						JOINT LForearm
						{
							OFFSET -32.381599 0.000000 -0.204000 
							CHANNELS 3 Xrotation Yrotation Zrotation
							JOINT LHand
							{
								OFFSET -27.282101 0.000000 0.000000 
								CHANNELS 3 Xrotation Yrotation Zrotation
								End Site
								{
									OFFSET -16.318300 -1.019900 0.000000 
								}
							}
						}
					}
				}
			}
		}
	}
	JOINT RThigh
	{
		OFFSET -9.179000 0.463000 0.000000 
		CHANNELS 3 Xrotation Yrotation Zrotation
		JOINT RShin
		{
			OFFSET 44.569302 0.000000 -0.509900 
			CHANNELS 3 Xrotation Yrotation Zrotation
			JOINT RFoot
			{
				OFFSET 0.000000 -46.216499 -0.418200 
				CHANNELS 3 Xrotation Yrotation Zrotation
				JOINT RToe
				{
					OFFSET 0.000000 -4.064300 12.601800 
					CHANNELS 3 Xrotation Yrotation Zrotation
					End Site
					{
						OFFSET 6.998200 0.000000 0.000000 
					}
				}
			}
		}
	}
	JOINT LThigh
	{
		OFFSET 9.179000 0.463000 0.000000 
		CHANNELS 3 Xrotation Yrotation Zrotation
		JOINT LShin
		{
			OFFSET 44.569302 0.000000 0.509900 
			CHANNELS 3 Xrotation Yrotation Zrotation
			JOINT LFoot
			{
				OFFSET 0.000000 -46.216499 0.418200 
				CHANNELS 3 Xrotation Yrotation Zrotation
				JOINT LToe
				{
					OFFSET 0.000000 -4.064300 -12.601800 
					CHANNELS 3 Xrotation Yrotation Zrotation
					End Site
					{
						OFFSET 6.998200 0.000000 0.000000 
					}
				}
			}
		}
	}
}
MOTION
Frames: 11
Frame Time: 0.040000
-25.342899 95.209396 -31.265699 2.417942 10.998420 1.390792 -89.999992 -90.000000 0.000000 0.124574 0.224949 -0.062394 0.398819 0.753952 -0.203461 0.000000 0.000000 0.000000 0.000000 0.000000 0.000000 90.006409 -0.514230 -83.088699 9.667370 17.296009 67.359413 3.718024 34.016659 -7.078458 0.000000 0.000000 0.000000 -89.996033 0.289418 -86.111656 -16.056980 -49.441441 69.577026 -0.906593 -11.175980 -5.976190 0.000000 0.000000 0.000000 19.588970 78.782257 -108.859901 89.598022 39.163830 90.101257 -0.385670 -0.317043 -0.052061 171.815308 90.000000 0.000000 146.070297 77.987953 113.631599 -89.932251 -10.608730 89.996834 6.576380 -1.596611 0.665971 180.000000 -90.000000 0.000000 
-24.745501 95.206802 -26.412399 2.301483 10.749640 1.527248 -89.999992 -90.000000 0.000000 0.094429 0.279222 -0.054428 0.278603 0.962675 -0.172226 0.000000 0.000000 0.000000 0.000000 0.000000 0.000000 90.005363 -0.499554 -83.286324 10.882360 16.408779 69.123337 3.286438 31.036510 -6.846319 0.000000 0.000000 0.000000 -89.995956 0.285259 -86.167519 -14.866930 -51.031330 67.286087 -1.096391 -12.943190 -6.015849 0.000000 0.000000 0.000000 21.363079 76.649132 -116.337402 89.521927 44.258362 90.146690 0.018992 0.385862 0.137261 169.159805 90.000000 0.000000 149.910706 78.045174 112.203796 -89.917908 -12.194330 89.997276 10.433880 -2.376735 1.255292 180.000000 -90.000000 0.000000 
-24.469299 94.773697 -22.197800 2.552409 10.884950 1.586457 -89.999992 -90.000000 0.000000 0.031713 0.350885 -0.035110 0.122734 1.109197 -0.125375 0.000000 0.000000 0.000000 0.000000 0.000000 0.000000 90.003036 -0.464052 -83.764137 12.771290 14.678610 71.002701 3.198419 30.404181 -6.801353 0.000000 0.000000 0.000000 -89.995247 0.231599 -86.888351 -10.979390 -52.543999 66.835892 -1.203532 -13.929990 -6.040746 0.000000 0.000000 0.000000 20.168489 75.563164 -121.479103 89.482109 46.631191 90.172638 -0.300368 -0.046480 -0.008855 161.917801 90.000000 0.000000 153.668198 77.922638 109.696701 -89.897903 -14.386050 89.998611 14.440200 -3.024997 1.856369 180.000107 -90.000000 0.000000 
-24.560101 94.125702 -18.186899 3.056315 10.696090 1.510042 -89.999992 -90.000000 0.000000 -0.015392 0.348643 -0.023853 -0.026955 1.125893 -0.098107 0.000000 0.000000 0.000000 0.000000 0.000000 0.000000 89.999603 -0.399810 -84.628227 14.736140 13.206170 73.368042 3.172434 30.215900 -6.788239 0.000000 0.000000 0.000000 -89.995506 0.150081 -87.983253 -6.963006 -52.082520 66.718971 -1.509171 -16.697290 -6.121489 0.000000 0.000000 0.000000 18.635229 75.546242 -125.348999 89.523087 44.185860 90.145973 -2.468237 -1.304667 -0.460264 158.352905 90.000000 0.000000 158.236298 77.757736 105.918297 -89.875961 -16.755640 90.000954 18.198441 -2.922505 1.949909 180.000504 -90.000000 0.000000 
-24.535500 93.693001 -14.484500 3.869609 9.207676 1.283810 -89.999992 -90.000000 0.000000 -0.045639 0.306057 -0.035421 -0.128703 1.016207 -0.134117 0.000000 0.000000 0.000000 0.000000 0.000000 0.000000 89.996437 -0.311658 -85.812897 15.845470 12.943100 75.557701 2.984278 28.830879 -6.695514 0.000000 0.000000 0.000000 -89.996948 0.080786 -88.914230 -4.873113 -51.796410 65.098923 -1.935279 -20.422791 -6.257190 0.000000 0.000000 0.000000 19.868980 77.949150 -130.809799 89.625137 37.157902 90.086594 -5.075190 -2.278890 -0.952439 165.633194 90.000000 0.000000 161.748093 77.607384 103.537498 -89.867661 -17.641970 90.002083 20.001829 -2.010149 1.495733 180.001007 -90.000000 0.000000 
-24.709999 93.414101 -10.981400 4.559330 5.905406 0.944904 -89.999992 -90.000000 0.000000 -0.043192 0.253278 -0.078687 -0.120740 0.868962 -0.255972 0.000000 0.000000 0.000000 0.000000 0.000000 0.000000 89.995087 -0.214918 -87.112450 15.673150 14.313800 77.488487 2.583036 25.750311 -6.511476 0.000000 0.000000 0.000000 -89.998032 0.047461 -89.362129 -4.077202 -50.772511 62.638710 -2.222335 -22.836109 -6.363023 0.000000 0.000000 0.000000 24.333820 82.170029 -138.292801 89.742981 27.210699 90.033836 -4.695421 -1.499474 -0.656651 175.243698 90.000000 0.000000 165.590607 77.481499 101.762299 -89.875862 -16.765430 90.000969 21.476540 -0.129762 0.211587 180.004501 -90.000000 0.000000 
-25.162701 92.856201 -6.920800 4.775834 2.157182 0.603036 -89.999992 -90.000000 0.000000 0.004148 0.226133 -0.129009 0.023204 0.758406 -0.416471 0.000000 0.000000 0.000000 0.000000 0.000000 0.000000 89.995796 -0.125221 -88.317207 15.173560 16.098110 79.491379 2.052360 21.416880 -6.299007 0.000000 0.000000 0.000000 -89.998238 0.042010 -89.435448 -3.716323 -48.188980 60.305481 -2.522076 -25.267309 -6.485214 0.000000 0.000000 0.000000 25.140181 85.721489 -140.336807 89.856407 15.866970 90.003723 -2.611330 1.197360 0.410015 179.411301 90.000000 0.000000 170.159500 77.355728 100.043602 -89.883110 -15.987150 90.000099 23.221720 2.320989 -1.721910 180.004501 -90.000000 0.000000 
-25.621901 91.879501 -1.905400 4.651438 -0.071763 0.223467 -89.999992 -90.000000 0.000000 0.066627 0.204869 -0.160585 0.224290 0.669651 -0.520944 0.000000 0.000000 0.000000 0.000000 0.000000 0.000000 89.997551 -0.058235 -89.217216 15.689290 16.578171 81.430412 1.557912 17.131571 -6.135681 0.000000 0.000000 0.000000 -89.998070 0.046322 -89.377434 -2.064354 -44.526749 59.555092 -2.932167 -28.440550 -6.670531 0.000000 0.000000 0.000000 7.217943 88.280037 -122.351997 89.941483 6.576778 89.996696 -1.508880 2.323300 0.804667 179.990204 90.000000 0.000000 175.404999 77.389679 98.499657 -89.889229 -15.325970 89.999443 25.115191 3.454894 -2.796038 180.003693 -90.000000 0.000000 
-26.133400 90.934601 2.989100 4.464384 -1.361387 -0.108102 -89.999992 -90.000000 0.000000 0.104680 0.168403 -0.157719 0.330938 0.535386 -0.512062 0.000000 0.000000 0.000000 0.000000 0.000000 0.000000 89.998489 -0.033097 -89.555069 16.274679 16.696180 82.529877 1.184756 13.757650 -6.036264 0.000000 0.000000 0.000000 -89.997849 0.052532 -89.293999 -0.356290 -40.724442 59.723110 -3.302515 -31.151119 -6.854611 0.000000 0.000000 0.000000 -66.765266 88.354820 -48.057240 89.983589 1.880560 89.998444 -0.653934 1.084809 0.339558 180.000000 90.000000 0.000000 -179.479599 77.455193 97.091782 -89.896584 -14.529140 89.998741 25.472050 3.887139 -3.239507 180.503006 -90.000000 0.000000 
-26.779301 90.790901 7.791300 4.379526 -2.232608 -0.584079 -89.999992 -90.000000 0.000000 0.079686 0.094380 -0.122126 0.262973 0.324065 -0.418926 0.000000 0.000000 0.000000 0.000000 0.000000 0.000000 89.997513 -0.059510 -89.200150 16.088051 17.524710 82.727692 1.013723 12.176360 -5.997883 0.000000 0.000000 0.000000 -89.997383 0.066417 -89.107407 -0.786941 -39.313591 58.877579 -3.450318 -32.191620 -6.932218 0.000000 0.000000 0.000000 -84.981041 86.453529 -29.683849 89.981018 2.167934 89.998230 3.083723 -1.231522 -0.497512 179.999893 90.000000 0.000000 -173.104401 76.848083 92.716202 -89.884804 -15.804630 89.999924 20.984720 4.078660 -2.985874 186.549500 -90.000000 0.000000 
-27.421101 91.639397 12.944300 4.177802 -3.093006 -1.125372 -89.999992 -90.000000 0.000000 0.034264 0.029786 -0.095372 0.115892 0.090567 -0.325296 0.000000 0.000000 0.000000 0.000000 0.000000 0.000000 89.996002 -0.115028 -88.454231 15.647260 18.469330 82.295517 0.943416 11.520650 -5.983447 0.000000 0.000000 0.000000 -89.996727 0.088303 -88.813316 -0.890225 -36.973560 59.834061 -3.381614 -31.710880 -6.895858 0.000000 0.000000 0.000000 -85.990997 84.656174 -28.528219 89.938652 6.890592 89.996719 5.984677 -3.043414 -0.881138 180.000000 90.000000 0.000000 -166.703094 75.068062 85.476448 -89.830544 -21.521690 90.008743 9.386841 3.866401 -1.958531 203.109604 -90.000000 0.000000 
